<svg viewBox="0 0 160 210" xmlns="http://www.w3.org/2000/svg" role="img" aria-label="RIZEN crest"
     fill="none" stroke="url(#rizenGold)" stroke-width="3.2" stroke-linecap="round" stroke-linejoin="round">
  <defs>
    <linearGradient id="rizenGold" x1="0" y1="0" x2="1" y2="1">
      <stop offset="0" stop-color="#E8D196"/>
      <stop offset="0.55" stop-color="#C7A24B"/>
      <stop offset="1" stop-color="#9A7A2E"/>
    </linearGradient>
  </defs>
  <circle cx="80" cy="18" r="3" fill="url(#rizenGold)" stroke="none"/>
  <path d="M80 26 V 80"/>
  <path d="M50 58 H110"/>
  <path d="M80 22 L86 30 L80 38 L74 30 Z"/>
  <path d="M42 58 L50 50 L58 58 L50 66 Z"/>
  <path d="M118 58 L110 50 L102 58 L110 66 Z"/>
  <path d="M52 110 L62 86 L74 110"/>
  <path d="M70 110 L80 80 L90 110"/>
  <path d="M86 110 L98 86 L108 110"/>
  <path d="M50 110 H110 M50 116 H110 M50 110 V116 M110 110 V116"/>
  <circle cx="62" cy="84" r="3" fill="url(#rizenGold)" stroke="none"/>
  <circle cx="80" cy="78" r="3.4" fill="url(#rizenGold)" stroke="none"/>
  <circle cx="98" cy="84" r="3" fill="url(#rizenGold)" stroke="none"/>
  <path d="M80 116 V 134"/>
  <path d="M80 134 L85 140 L80 146 L75 140 Z"/>
  <path d="M80 123 C 70 127, 68 135, 75 138"/>
  <path d="M80 123 C 90 127, 92 135, 85 138"/>
</svg>
